<svg xmlns="http://www.w3.org/2000/svg" xmlns:xlink="http://www.w3.org/1999/xlink" height="800px" width="800px" version="1.1" id="Layer_1" viewBox="0 0 503.607 503.607" xml:space="preserve">
<g>
	<path style="fill:#DBB780;" d="M260.188,360.696c-4.172,0-7.789-3.106-8.318-7.353c-2.3-18.39,0.101-29.78,2.031-38.929   c2.006-9.501,3.215-15.243-1.41-25.927c-1.838-4.247,0.126-9.191,4.373-11.037c4.255-1.847,9.191,0.126,11.037,4.373   c6.748,15.587,4.65,25.533,2.426,36.058c-1.763,8.335-3.752,17.786-1.805,33.381c0.579,4.6-2.686,8.796-7.286,9.367   C260.885,360.671,260.532,360.696,260.188,360.696"/>
	<path style="fill:#C03A2B;" d="M243.41,360.689c-2.837,0-5.347-1.41-6.857-3.559c-10.886-13.874-10.383-25.885-9.921-36.495   c0.428-9.997,0.797-18.633-7.084-30.963c-2.493-3.911-1.343-9.098,2.56-11.591c3.911-2.493,9.098-1.343,11.591,2.56   c10.718,16.795,10.156,30.057,9.703,40.708c-0.411,9.619-0.713,16.569,6.572,25.692c1.183,1.494,1.83,3.332,1.83,5.238   C251.803,356.92,248.051,360.689,243.41,360.689"/>
	<path style="fill:#178E47;" d="M276.984,360.696c-4.633,0-8.393-3.752-8.393-8.393c0-10.87,5.422-17.937,10.676-24.769   c6.799-8.855,14.504-18.885,14.504-42.378c0-4.642,3.76-8.393,8.393-8.393c4.642,0,8.393,3.752,8.393,8.393   c0,29.201-10.383,42.723-17.979,52.61c-4.726,6.152-7.202,9.602-7.202,14.537C285.377,356.945,281.625,360.696,276.984,360.696"/>
	<path style="fill:#DBB780;" d="M268.599,251.582c-3.248,0-6.337-1.897-7.714-5.061c-6.74-15.587-4.642-25.533-2.417-36.05   c1.754-8.343,3.743-17.786,1.796-33.389c-0.579-4.6,2.686-8.796,7.285-9.367c4.574-0.537,8.796,2.678,9.367,7.286   c2.308,18.398-0.101,29.78-2.023,38.929c-2.006,9.501-3.223,15.242,1.402,25.927c1.847,4.247-0.117,9.191-4.373,11.037   C270.84,251.363,269.706,251.582,268.599,251.582"/>
	<path style="fill:#C03A2B;" d="M302.172,251.582c-2.77,0-5.473-1.368-7.084-3.878c-10.718-16.787-10.156-30.049-9.694-40.708   c0.411-9.611,0.705-16.56-6.572-25.684c-1.192-1.494-1.838-3.341-1.838-5.238c0-4.642,3.76-8.41,8.393-8.41   c2.871,0,5.405,1.427,6.908,3.618c10.836,13.849,10.332,25.843,9.879,36.436c-0.428,9.997-0.797,18.625,7.076,30.955   c2.501,3.903,1.351,9.099-2.56,11.591C305.286,251.154,303.725,251.582,302.172,251.582"/>
	<path style="fill:#178E47;" d="M226.623,251.582c-4.633,0-8.393-3.752-8.393-8.393c0-29.201,10.391-42.723,17.979-52.61   c4.734-6.152,7.202-9.602,7.202-14.537c0-4.642,3.76-8.393,8.393-8.393c4.642,0,8.393,3.752,8.393,8.393   c0,10.87-5.422,17.937-10.668,24.769c-6.807,8.855-14.512,18.885-14.512,42.378C235.016,247.83,231.265,251.582,226.623,251.582"/>
	<g>
		<path style="fill:#ECF0F1;" d="M495.213,503.607h-33.574c-4.642,0-8.393-3.752-8.393-8.393V100.721    c0-27.774-22.587-50.361-50.361-50.361h-58.754c-27.774,0-50.361,22.587-50.361,50.361v75.423c0,4.642-3.752,8.393-8.393,8.393    h-33.574c-4.642,0-8.393-3.752-8.393-8.393v-75.423C243.41,45.182,288.592,0,344.131,0h58.754    c55.539,0,100.721,45.182,100.721,100.721v394.492C503.607,499.855,499.855,503.607,495.213,503.607"/>
		<path style="fill:#ECF0F1;" d="M184.656,503.607h-25.18c-55.539,0-100.721-45.182-100.721-100.721v-75.541    c0-4.642,3.752-8.393,8.393-8.393h33.574c4.642,0,8.393,3.752,8.393,8.393v75.541c0,27.774,22.587,50.361,50.361,50.361h25.18    c27.774,0,50.361-22.587,50.361-50.361v-50.478c0-4.633,3.752-8.393,8.393-8.393h33.574c4.642,0,8.393,3.76,8.393,8.393v50.478    C285.377,458.425,240.195,503.607,184.656,503.607"/>
	</g>
	<polygon style="fill:#38454F;" points="125.902,327.123 41.967,327.123 8.393,218.008 8.393,108.893 159.475,108.893    159.475,218.008  "/>
	<path style="fill:#546A79;" d="M41.967,108.893c0,23.183,18.785,41.967,41.967,41.967s41.967-18.785,41.967-41.967H41.967z"/>
	<polygon style="fill:#BDC3C7;" points="50.361,8.172 50.361,75.319 67.148,75.319 67.148,108.893 100.721,108.893 100.721,75.319    117.508,75.319 117.508,8.172  "/>
	<g>
		<polygon style="fill:#ECF0F1;" points="50.361,75.319 50.361,16.565 16.787,16.565 16.787,108.893 67.148,108.893 67.148,75.319       "/>
		<polygon style="fill:#ECF0F1;" points="117.508,16.565 117.508,75.319 100.721,75.319 100.721,108.893 151.082,108.893     151.082,16.565   "/>
	</g>
	<g>
		<path style="fill:#546A79;" d="M58.754,301.942H31.643c-4.642,0-8.393-3.752-8.393-8.393s3.752-8.393,8.393-8.393h27.111    c4.642,0,8.393,3.752,8.393,8.393S63.396,301.942,58.754,301.942"/>
		<path style="fill:#546A79;" d="M136.23,301.942h-27.111c-4.642,0-8.393-3.752-8.393-8.393s3.752-8.393,8.393-8.393h27.111    c4.642,0,8.393,3.752,8.393,8.393S140.871,301.942,136.23,301.942"/>
		<path style="fill:#546A79;" d="M58.754,268.369H21.303c-4.642,0-8.393-3.752-8.393-8.393c0-4.642,3.752-8.393,8.393-8.393h37.452    c4.642,0,8.393,3.752,8.393,8.393C67.148,264.617,63.396,268.369,58.754,268.369"/>
		<path style="fill:#546A79;" d="M146.565,268.369h-37.452c-4.642,0-8.393-3.752-8.393-8.393c0-4.642,3.752-8.393,8.393-8.393    h37.452c4.642,0,8.393,3.752,8.393,8.393C154.959,264.617,151.207,268.369,146.565,268.369"/>
		<path style="fill:#546A79;" d="M58.754,234.795H10.979c-4.642,0-8.393-3.752-8.393-8.393c0-4.642,3.752-8.393,8.393-8.393h47.775    c4.642,0,8.393,3.752,8.393,8.393C67.148,231.043,63.396,234.795,58.754,234.795"/>
		<path style="fill:#546A79;" d="M156.894,234.795h-47.775c-4.642,0-8.393-3.752-8.393-8.393c0-4.642,3.752-8.393,8.393-8.393    h47.775c4.642,0,8.393,3.752,8.393,8.393C165.287,231.043,161.535,234.795,156.894,234.795"/>
		<path style="fill:#546A79;" d="M58.754,201.221H8.393c-4.642,0-8.393-3.752-8.393-8.393c0-4.642,3.752-8.393,8.393-8.393h50.361    c4.642,0,8.393,3.752,8.393,8.393C67.148,197.469,63.396,201.221,58.754,201.221"/>
		<path style="fill:#546A79;" d="M159.475,201.221h-50.361c-4.642,0-8.393-3.752-8.393-8.393c0-4.642,3.752-8.393,8.393-8.393    h50.361c4.642,0,8.393,3.752,8.393,8.393C167.869,197.469,164.117,201.221,159.475,201.221"/>
	</g>
</g>
</svg>
